<svg version="1.1" id="Layer_1" xmlns="http://www.w3.org/2000/svg" xmlns:xlink="http://www.w3.org/1999/xlink" x="0px" y="0px"
	 width="100%" viewBox="0 0 500 500" enable-background="new 0 0 500 500" xml:space="preserve">
<path fill="#000000" opacity="1.000000" stroke="none" 
	d="
M229.000000,501.000000 
	C152.666687,501.000000 76.833366,501.000000 1.000041,501.000000 
	C1.000027,334.333405 1.000027,167.666779 1.000014,1.000130 
	C167.666565,1.000087 334.333130,1.000087 500.999756,1.000043 
	C500.999847,167.666519 500.999847,334.333038 500.999939,500.999786 
	C410.500000,501.000000 320.000000,501.000000 229.000000,501.000000 
M229.173798,223.650772 
	C229.773468,223.797623 230.373138,223.944473 230.994476,224.016769 
	C230.994476,224.016769 230.933762,224.065140 231.183731,224.750198 
	C245.925446,229.528931 260.902191,229.072479 275.680695,225.622894 
	C283.468140,223.805145 289.047394,213.293320 287.689087,205.439423 
	C287.537079,204.560638 286.379974,203.855682 285.313354,202.573441 
	C284.479370,201.734756 283.645386,200.896072 282.596069,199.375626 
	C278.595673,197.216049 277.601654,197.722488 276.996704,202.228561 
	C275.669525,212.113998 272.910797,215.921997 263.627563,216.547791 
	C251.779358,217.346466 239.736115,218.542725 228.082550,214.886765 
	C228.082550,214.886765 228.286026,214.845871 228.081757,214.295456 
	C227.905014,214.211456 227.728256,214.127441 227.144058,213.439255 
	C226.364624,210.746765 224.953140,208.063950 224.911850,205.360184 
	C224.698318,191.377167 224.533234,177.379669 224.955490,163.405487 
	C225.240250,153.981552 230.345810,148.503922 239.843124,147.822357 
	C249.583572,147.123337 259.413116,147.675690 269.203674,147.661682 
	C274.393219,147.654266 276.894287,150.629929 276.960236,155.407135 
	C277.020599,159.779373 279.269409,162.485794 282.540436,164.664886 
	C283.526245,165.321594 284.858398,165.458374 286.031891,165.833328 
	C286.448425,164.523941 287.283569,163.191696 287.213593,161.908859 
	C286.759644,153.589615 282.964783,147.027649 275.854675,141.494980 
	C271.857880,140.010071 267.927948,137.513626 263.850800,137.244003 
	C254.415131,136.619995 244.880905,136.626450 235.437057,137.203049 
	C223.421783,137.936646 216.010269,144.474899 215.154312,156.484100 
	C214.105545,171.198532 214.294067,186.033081 214.675018,200.796936 
	C214.781464,204.922226 217.453918,208.981293 218.988174,213.015488 
	C218.988174,213.015488 218.920822,213.010086 218.888443,213.670547 
	C219.317383,214.171204 219.746338,214.671860 220.518555,215.700104 
	C222.681915,217.771072 224.845276,219.842056 227.332123,222.445572 
	C227.884186,222.661377 228.436264,222.877182 228.982315,223.023026 
	C228.982315,223.023026 228.920715,223.056763 229.173798,223.650772 
M338.081268,359.261475 
	C338.081268,359.261475 338.403015,359.244385 338.403015,359.244385 
	C338.403015,359.244385 338.080505,358.943878 338.058228,358.126587 
	C338.232300,355.794250 338.406403,353.461914 338.638031,350.358643 
	C335.686859,353.665192 334.146790,356.253296 338.081268,359.261475 
M286.909393,356.133972 
	C289.442596,356.167358 292.515778,355.450378 291.623535,360.244019 
	C292.138733,360.173065 292.653931,360.102112 293.169159,360.031189 
	C293.503021,358.263245 293.836914,356.495331 294.312256,353.978363 
	C290.804443,354.721527 288.305084,355.251038 285.172394,355.950409 
	C283.265076,357.723480 283.265076,357.723480 285.710876,359.078796 
	C285.866852,358.063354 286.013763,357.107025 286.909393,356.133972 
M383.481354,302.042694 
	C379.987854,302.059357 376.478271,301.868469 373.004425,302.138214 
	C366.804962,302.619476 363.933716,306.214172 363.978973,312.987976 
	C364.023102,319.592010 366.649933,323.156647 372.904785,323.164276 
	C378.817627,323.171478 384.731964,321.917603 390.824738,321.197235 
	C390.973663,321.339844 391.973358,322.297150 392.973053,323.254486 
	C393.485107,322.002441 394.428650,320.753265 394.437073,319.497833 
	C394.481628,312.848755 394.447327,306.190613 394.130127,299.550415 
	C393.897705,294.685181 391.234314,291.073486 386.323853,290.636078 
	C381.107208,290.171448 375.698425,290.256958 370.569244,291.184418 
	C368.428467,291.571533 366.691406,294.670166 365.011932,296.732300 
	C364.668915,297.153503 365.404480,298.453125 365.642883,299.347839 
	C366.558319,298.911285 368.022980,298.692902 368.297516,298.001801 
	C369.757935,294.325134 372.735840,293.889008 376.040253,293.894806 
	C378.368103,293.898895 380.701874,293.778473 383.022614,293.904663 
	C388.526520,294.203857 389.987732,295.797394 390.341583,302.043091 
	C388.368622,302.043091 386.416473,302.043091 383.481354,302.042694 
M56.101513,300.500671 
	C56.259914,304.651001 56.056152,308.854797 56.659069,312.939514 
	C57.636116,319.558899 60.965252,322.665039 67.588135,323.097198 
	C72.880356,323.442566 78.245445,323.442169 83.525673,322.986542 
	C88.953407,322.518219 92.231766,318.779053 92.543091,313.406525 
	C92.603882,312.357300 91.662834,311.250061 91.183876,310.169586 
	C90.433784,311.053192 89.149696,311.866882 89.023254,312.832184 
	C88.370415,317.816223 85.147514,319.590515 80.719208,319.715179 
	C76.403160,319.836670 72.059723,319.823639 67.760307,319.475037 
	C62.904312,319.081329 60.213104,316.123230 60.115089,311.262909 
	C59.970802,304.108154 59.907600,296.942139 60.150959,289.792542 
	C60.313683,285.011780 62.932693,282.048615 67.970573,281.841614 
	C71.957901,281.677734 75.950890,281.590912 79.941559,281.584015 
	C84.767105,281.575653 88.392471,283.097687 89.052711,288.664764 
	C89.153900,289.518036 90.619621,290.209442 91.454239,290.975708 
	C91.849869,290.004181 92.621330,289.016052 92.579361,288.063812 
	C92.330795,282.423401 88.601112,278.442841 82.744576,278.063599 
	C77.608261,277.730988 72.410919,277.714203 67.279663,278.090881 
	C61.048725,278.548279 57.680317,281.771301 56.702511,288.081177 
	C56.121094,291.833160 56.277027,295.699341 56.101513,300.500671 
M134.983139,320.728394 
	C134.962708,314.243073 135.151535,307.748596 134.867203,301.274872 
	C134.534927,293.708649 130.729782,289.929016 123.142929,290.064240 
	C118.185074,290.152588 113.246033,291.297028 108.026093,292.005402 
	C108.026093,288.009613 108.154411,283.231171 107.946068,278.467468 
	C107.885414,277.080780 106.863144,275.736176 106.281677,274.372284 
	C105.566963,275.630249 104.244614,276.881592 104.230827,278.147186 
	C104.080490,291.948639 104.080109,305.752930 104.226456,319.554443 
	C104.239677,320.801331 105.557892,322.034363 106.270088,323.273834 
	C106.852547,321.940338 107.887329,320.623627 107.937660,319.270325 
	C108.135284,313.955902 107.974220,308.629395 108.038429,303.308472 
	C108.108345,297.514740 110.542732,294.737976 116.244270,294.028564 
	C118.379272,293.762970 120.562820,293.721680 122.716133,293.800262 
	C129.030807,294.030731 130.929214,295.955566 131.040421,302.359344 
	C131.144363,308.344543 131.017868,314.333984 131.146805,320.318268 
	C131.167648,321.285126 131.990814,322.234711 132.443085,323.192261 
	C133.281464,322.650635 134.119843,322.109009 134.983139,320.728394 
M180.565445,323.082520 
	C184.711411,323.130768 188.878632,323.465881 192.998444,323.160889 
	C199.386246,322.687958 202.564667,319.355255 202.955811,312.915833 
	C203.207306,308.775482 203.202789,304.595703 202.957626,300.454651 
	C202.597855,294.377625 199.382309,290.628296 193.407578,290.223175 
	C182.328873,289.471985 175.721970,289.262390 172.940598,296.029816 
	C172.324829,297.528076 172.004715,299.231720 171.940979,300.856171 
	C171.791214,304.673309 171.818039,308.500824 171.884750,312.322174 
	C171.978821,317.710693 174.239883,321.568573 180.565445,323.082520 
M258.812286,317.476593 
	C261.517059,319.362701 264.001068,322.223206 266.980255,322.898315 
	C271.078400,323.826996 275.567535,323.330780 279.859100,323.024261 
	C284.528198,322.690857 287.879425,319.983917 288.281616,315.310730 
	C288.775146,309.576141 288.704590,303.738739 288.252869,297.994965 
	C287.917847,293.734772 284.840149,290.970215 280.667816,290.569855 
	C275.749939,290.097900 270.713745,290.011261 265.806976,290.516510 
	C261.173767,290.993591 258.215576,294.231171 258.046722,298.912231 
	C257.832489,304.851440 258.291595,310.814972 258.812286,317.476593 
M324.984558,295.229828 
	C325.390900,295.939178 325.662964,296.794861 326.236877,297.321625 
	C326.988678,298.011719 327.978790,298.442108 328.866394,298.984222 
	C329.132690,297.853119 329.600708,296.720703 329.593292,295.591370 
	C329.588501,294.857178 328.982971,294.057953 328.489594,293.406799 
	C324.189880,287.731873 305.791260,288.593048 302.089386,294.649139 
	C301.579254,295.483673 301.015717,296.467224 300.998047,297.391724 
	C300.881226,303.495483 300.552216,309.628815 301.012085,315.697998 
	C301.314728,319.692139 304.364105,322.450317 308.293976,322.830872 
	C313.385773,323.323853 318.685669,323.620453 323.645630,322.680450 
	C326.049225,322.224915 327.932709,318.804016 329.903320,316.593384 
	C330.124329,316.345520 329.555481,314.931946 329.021790,314.613129 
	C328.561249,314.337952 327.130920,314.658234 326.979797,315.046387 
	C324.590576,321.182068 319.224243,319.744995 314.657745,319.777100 
	C305.967285,319.838196 304.051331,317.799835 304.010376,309.263885 
	C303.996002,306.269928 303.906158,303.262024 304.150238,300.285065 
	C304.416901,297.033112 305.943329,294.222137 309.502625,294.126587 
	C314.422272,293.994568 319.359344,294.512054 324.984558,295.229828 
M237.645493,290.430206 
	C231.120850,289.378754 224.803436,289.479370 220.033798,293.497833 
	C218.871552,292.171722 217.936005,291.104218 217.000458,290.036743 
	C216.402893,291.406677 215.314331,292.767242 215.288071,294.148041 
	C215.126862,302.627045 215.117508,311.112518 215.302307,319.590515 
	C215.329315,320.830170 216.662140,322.041290 217.390762,323.265625 
	C217.940781,322.090179 218.926712,320.929047 218.965805,319.736847 
	C219.140121,314.420410 219.022644,309.095001 219.050781,303.773041 
	C219.086273,297.060944 221.454086,294.516571 228.224518,293.987671 
	C230.209274,293.832611 232.216049,293.804474 234.205261,293.890533 
	C240.008453,294.141724 241.946503,296.019836 242.081223,301.820862 
	C242.220200,307.805176 242.033310,313.797852 242.221451,319.779572 
	C242.258896,320.969788 243.347626,322.126923 243.951584,323.299316 
	C244.641983,322.241150 245.900223,321.198334 245.929321,320.122284 
	C246.100067,313.807770 246.142273,307.479736 245.913940,301.167633 
	C245.733170,296.170288 243.847809,292.089691 237.645493,290.430206 
M405.118469,293.738831 
	C405.978485,294.957336 407.540466,296.152130 407.582520,297.398224 
	C407.823151,304.532898 407.603455,311.682281 407.784851,318.820404 
	C407.823120,320.326385 408.882141,321.806366 409.470825,323.298340 
	C410.075317,321.821228 411.171753,320.354309 411.202667,318.865295 
	C411.373383,310.637970 411.284332,302.405243 411.284332,293.742554 
	C414.490082,293.742554 417.139038,293.909943 419.742981,293.641174 
	C420.530090,293.559906 421.192444,292.269836 421.911957,291.533508 
	C421.160309,291.021454 420.436005,290.123291 419.652069,290.067871 
	C417.025269,289.882111 414.377197,289.997345 411.786835,289.997345 
	C410.648132,281.452301 411.697083,279.967865 419.606079,277.984741 
	C420.481750,277.765167 421.144684,276.697266 421.906250,276.022797 
	C421.047485,275.453430 420.229126,274.470123 419.323456,274.381775 
	C413.360962,273.799988 408.664307,277.701263 407.940338,283.716461 
	C407.704315,285.677399 407.660736,287.661530 407.531433,289.600739 
	C402.636230,290.438568 402.636230,290.438568 405.118469,293.738831 
M436.910980,317.568573 
	C436.012299,309.802917 435.113617,302.037262 434.161621,293.810791 
	C436.988220,293.810791 438.511444,294.067413 439.903503,293.749573 
	C441.901703,293.293335 443.804291,292.418304 445.747681,291.722046 
	C443.891205,291.135071 442.068237,290.362762 440.167786,290.018768 
	C438.604431,289.735809 436.949127,289.961060 435.021301,289.961060 
	C435.021301,287.347290 435.188232,285.196259 434.940948,283.093903 
	C434.838928,282.226685 433.847290,281.464111 433.260254,280.653961 
	C432.587219,281.418915 431.434784,282.125763 431.333679,282.960022 
	C431.062408,285.197906 431.241119,287.490356 431.241119,288.598846 
	C428.595734,290.033936 426.917664,290.944244 425.239594,291.854553 
	C427.085632,292.824646 428.931641,293.794769 431.722931,295.261597 
	C431.722931,301.300873 431.237610,308.140350 431.869080,314.875092 
	C432.422546,320.777557 437.584015,324.155853 443.315308,323.309845 
	C444.221497,323.176117 444.994385,322.139160 445.828888,321.519806 
	C445.118347,320.954346 444.490265,320.156189 443.681000,319.869324 
	C441.678925,319.159821 439.593903,318.684357 436.910980,317.568573 
M151.138077,308.568726 
	C151.273773,298.279510 153.258667,296.054077 163.892792,293.819702 
	C164.920166,293.603851 165.736618,292.384125 166.650970,291.630402 
	C165.600357,291.080017 164.357849,289.857422 163.531662,290.093262 
	C159.515060,291.239807 155.609924,292.776855 151.851761,294.109497 
	C151.110382,293.078583 150.026947,291.571930 148.943512,290.065308 
	C148.394165,291.985992 147.413483,293.897156 147.370789,295.829041 
	C147.194138,303.824249 147.223755,311.827332 147.388565,319.823181 
	C147.413010,321.008789 148.567123,322.171112 149.198593,323.344208 
	C149.843719,322.239563 150.964157,321.168549 151.045135,320.023987 
	C151.291550,316.541656 151.136642,313.030975 151.138077,308.568726 
M341.064117,322.417175 
	C343.718109,324.321045 344.624512,323.005951 344.667389,320.386871 
	C344.727112,316.739258 344.686218,313.089966 344.690277,309.441406 
	C344.702972,298.018219 346.298767,296.111115 357.347839,293.794159 
	C358.340973,293.585907 359.119781,292.355743 359.998138,291.600189 
	C358.956329,291.065887 357.705109,289.860962 356.907867,290.109894 
	C352.813965,291.388367 348.836823,293.040680 345.441284,294.326660 
	C344.589630,293.127014 343.503143,291.596588 342.416656,290.066193 
	C341.902344,291.789612 340.971161,293.506439 340.943909,295.237518 
	C340.805634,304.024628 340.901794,312.815430 341.064117,322.417175 
M73.361526,357.464905 
	C74.291908,357.012268 75.227295,356.569580 76.151573,356.104767 
	C77.809334,355.271057 79.460411,354.424072 81.114288,353.582611 
	C80.855789,352.991882 80.597290,352.401184 80.338791,351.810455 
	C78.012314,352.316833 75.299660,352.262726 73.485466,353.512665 
	C72.113831,354.457733 71.457657,357.053436 71.391708,358.946136 
	C71.368919,359.600311 74.023003,360.677216 75.565125,360.962708 
	C77.070450,361.241455 78.717186,360.756470 80.301842,360.606720 
	C80.379448,360.225220 80.457054,359.843750 80.534668,359.462250 
	C78.192398,359.029388 75.850128,358.596497 73.361526,357.464905 
M363.608276,360.867737 
	C365.737457,360.735901 367.866638,360.604065 369.995819,360.472229 
	C369.974548,360.152496 369.953278,359.832764 369.932007,359.513031 
	C368.070068,359.286224 366.208160,359.059448 363.544983,358.735077 
	C363.544983,354.648834 363.544983,350.787354 363.544983,346.925873 
	C362.910126,346.956451 362.275238,346.987030 361.640381,347.017578 
	C362.004730,351.582611 362.369080,356.147644 363.608276,360.867737 
M379.778259,353.443359 
	C378.687012,353.129669 377.595795,352.815948 376.504517,352.502228 
	C376.452515,354.590057 375.676422,357.092621 376.564026,358.642273 
	C377.358673,360.029633 379.940216,360.824249 381.820801,361.014130 
	C383.172424,361.150543 384.667969,359.861237 386.099274,359.207916 
	C385.883636,358.980774 385.667999,358.753601 385.452362,358.526459 
	C383.163025,358.526459 380.873688,358.526459 378.584351,358.526459 
	C378.867004,357.061615 379.149689,355.596771 379.778259,353.443359 
M411.527924,353.281708 
	C410.886505,354.119324 410.245087,354.956940 409.358215,356.115051 
	C410.865906,356.115051 411.841003,356.087891 412.813934,356.122192 
	C413.943909,356.161987 415.072021,356.255768 416.442291,356.341156 
	C416.677094,357.957581 416.887268,359.404633 417.206512,361.602417 
	C419.788940,354.694183 418.589020,352.943115 411.527924,353.281708 
M213.337112,357.615143 
	C213.666290,358.356232 213.995483,359.097351 214.324661,359.838440 
	C215.464523,358.137146 215.709473,354.832977 215.426193,354.787079 
	C212.915970,354.380127 210.312164,354.550598 207.735977,354.550598 
	C207.738892,355.220093 207.741821,355.889587 207.744736,356.559052 
	C209.418304,356.790863 211.091873,357.022644 213.337112,357.615143 
M346.706299,363.000916 
	C347.706940,353.263062 347.449158,351.757111 345.402283,351.035126 
	C345.033203,353.691162 344.364746,356.475800 344.377045,359.257446 
	C344.383270,360.673584 345.613342,362.084320 346.706299,363.000916 
M142.973267,353.045441 
	C142.973267,355.906342 142.973267,358.767273 142.973267,361.628174 
	C143.617813,361.633942 144.262360,361.639679 144.906891,361.645447 
	C144.738022,358.179199 144.569168,354.712952 144.400314,351.246735 
	C143.786255,351.667755 143.172195,352.088776 142.973267,353.045441 
M392.077576,354.581940 
	C392.609894,356.264099 393.142212,357.946259 393.674530,359.628418 
	C393.936829,359.536438 394.199127,359.444458 394.461426,359.352478 
	C394.461426,356.797180 394.461426,354.241913 394.461426,350.273987 
	C393.182495,352.332764 392.699249,353.110687 392.077576,354.581940 
M411.150238,359.135773 
	C412.059296,359.698151 412.968323,360.260529 413.877380,360.822937 
	C414.128510,360.349915 414.379639,359.876892 414.630737,359.403900 
	C413.703552,359.253235 412.776398,359.102570 411.150238,359.135773 
M402.015991,350.336090 
	C401.429016,350.669861 400.842041,351.003632 400.255066,351.337402 
	C400.627930,351.726227 401.000824,352.115082 401.373688,352.503906 
	C401.733551,351.915863 402.093445,351.327820 402.015991,350.336090 
M134.476166,359.316528 
	C135.093857,359.651184 135.711548,359.985840 136.329239,360.320496 
	C136.426559,359.872101 136.523880,359.423706 136.621216,358.975311 
	C135.942169,358.895294 135.263138,358.815277 134.476166,359.316528 
M401.649872,358.983734 
	C401.191742,359.088043 400.733612,359.192322 400.275482,359.296631 
	C400.480530,359.662384 400.685608,360.028107 400.890656,360.393860 
	C401.184448,360.097992 401.478210,359.802124 401.649872,358.983734 
M340.492889,365.128815 
	C340.382477,365.239471 340.204681,365.338623 340.183105,365.464478 
	C340.166016,365.564270 340.336884,365.795929 340.430298,365.799225 
	C341.208588,365.826752 341.988281,365.814850 342.767548,365.814850 
	C342.768311,365.601837 342.769104,365.388824 342.769867,365.175781 
	C342.179749,365.125702 341.589600,365.075592 340.492889,365.128815 
M291.430634,351.667938 
	C291.650818,351.965607 291.870972,352.263245 292.091156,352.560913 
	C292.281372,352.375946 292.471558,352.190979 292.661743,352.006012 
	C292.374542,351.773804 292.087311,351.541626 291.430634,351.667938 
M336.472565,363.025909 
	C336.801178,363.299683 337.114716,363.598267 337.476105,363.818115 
	C337.525238,363.847992 337.814056,363.483734 337.991882,363.301971 
	C337.582611,363.106537 337.173340,362.911102 336.472565,363.025909 
M135.056473,352.384247 
	C134.866165,352.640594 134.675858,352.896942 134.485550,353.153290 
	C134.758438,352.984192 135.031326,352.815094 135.056473,352.384247 
M340.982513,359.351624 
	C341.057465,359.660736 341.132416,359.969879 341.207336,360.278992 
	C341.257751,359.985504 341.308197,359.691986 340.982513,359.351624 
M418.508698,351.818115 
	C418.508698,351.818115 418.416595,352.136353 418.416595,352.136353 
	C418.416595,352.136353 418.615082,351.940063 418.508698,351.818115 
M136.443954,350.490784 
	C136.443954,350.490784 136.519196,350.452332 136.443954,350.490784 
z"/>
<path fill="#B9CCD5" opacity="1.000000" stroke="none" 
	d="
M282.811371,200.057373 
	C283.645386,200.896072 284.479370,201.734756 285.374268,203.186600 
	C283.535248,219.755188 277.591064,225.189117 261.250580,225.136688 
	C251.143936,225.104263 241.039291,224.443726 230.933762,224.065140 
	C230.933762,224.065140 230.994476,224.016769 230.873291,223.751068 
	C230.141647,223.342499 229.531189,223.199631 228.920715,223.056763 
	C228.920715,223.056763 228.982315,223.023026 228.842850,222.785660 
	C228.138458,222.336533 227.573547,222.124786 227.008636,221.913025 
	C224.845276,219.842056 222.681915,217.771072 220.301605,215.101868 
	C219.696716,214.005798 219.308762,213.507950 218.920807,213.010086 
	C218.920822,213.010086 218.988174,213.015488 218.986755,212.642700 
	C218.367477,209.856277 217.241821,207.448349 217.214600,205.028076 
	C217.044449,189.889053 216.542908,174.718124 217.306198,159.616150 
	C217.859924,148.660904 224.348206,141.635757 234.327637,140.295303 
	C248.340912,138.413010 262.475708,137.449585 276.280914,142.102905 
	C282.964783,147.027649 286.759644,153.589615 287.213593,161.908859 
	C287.283569,163.191696 286.448425,164.523941 286.031891,165.833328 
	C284.858398,165.458374 283.526245,165.321594 282.540436,164.664886 
	C279.269409,162.485794 277.020599,159.779373 276.960236,155.407135 
	C276.894287,150.629929 274.393219,147.654266 269.203674,147.661682 
	C259.413116,147.675690 249.583572,147.123337 239.843124,147.822357 
	C230.345810,148.503922 225.240250,153.981552 224.955490,163.405487 
	C224.533234,177.379669 224.698318,191.377167 224.911850,205.360184 
	C224.953140,208.063950 226.364624,210.746765 227.296753,213.905975 
	C227.728317,214.530426 228.007172,214.688141 228.286026,214.845871 
	C228.286026,214.845871 228.082550,214.886765 228.250275,215.104645 
	C231.615616,216.556747 234.761459,218.664078 238.020844,218.857483 
	C246.927261,219.385986 255.897339,219.457001 264.812622,219.054428 
	C274.453766,218.619095 277.475830,215.343353 279.333832,205.958694 
	C279.752319,203.844955 281.614014,202.016937 282.811371,200.057373 
z"/>
<path fill="#D0D0D0" opacity="1.000000" stroke="none" 
	d="
M383.972839,302.042908 
	C386.416473,302.043091 388.368622,302.043091 390.341583,302.043091 
	C389.987732,295.797394 388.526520,294.203857 383.022614,293.904663 
	C380.701874,293.778473 378.368103,293.898895 376.040253,293.894806 
	C372.735840,293.889008 369.757935,294.325134 368.297516,298.001801 
	C368.022980,298.692902 366.558319,298.911285 365.642883,299.347839 
	C365.404480,298.453125 364.668915,297.153503 365.011932,296.732300 
	C366.691406,294.670166 368.428467,291.571533 370.569244,291.184418 
	C375.698425,290.256958 381.107208,290.171448 386.323853,290.636078 
	C391.234314,291.073486 393.897705,294.685181 394.130127,299.550415 
	C394.447327,306.190613 394.481628,312.848755 394.437073,319.497833 
	C394.428650,320.753265 393.485107,322.002441 392.973053,323.254486 
	C391.973358,322.297150 390.973663,321.339844 390.824738,321.197235 
	C384.731964,321.917603 378.817627,323.171478 372.904785,323.164276 
	C366.649933,323.156647 364.023102,319.592010 363.978973,312.987976 
	C363.933716,306.214172 366.804962,302.619476 373.004425,302.138214 
	C376.478271,301.868469 379.987854,302.059357 383.972839,302.042908 
M383.431427,305.900391 
	C380.615143,305.904327 377.797974,305.865387 374.982727,305.921265 
	C369.369080,306.032715 367.906219,307.379181 367.824188,312.393768 
	C367.735107,317.841064 369.257263,319.515808 374.732666,319.805481 
	C376.547424,319.901489 378.383240,319.870911 380.194305,319.718719 
	C389.086792,318.971649 391.828339,315.283813 390.216980,305.900848 
	C388.325073,305.900848 386.360962,305.900848 383.431427,305.900391 
z"/>
<path fill="#D0D0D0" opacity="1.000000" stroke="none" 
	d="
M56.101482,300.007446 
	C56.277027,295.699341 56.121094,291.833160 56.702511,288.081177 
	C57.680317,281.771301 61.048725,278.548279 67.279663,278.090881 
	C72.410919,277.714203 77.608261,277.730988 82.744576,278.063599 
	C88.601112,278.442841 92.330795,282.423401 92.579361,288.063812 
	C92.621330,289.016052 91.849869,290.004181 91.454239,290.975708 
	C90.619621,290.209442 89.153900,289.518036 89.052711,288.664764 
	C88.392471,283.097687 84.767105,281.575653 79.941559,281.584015 
	C75.950890,281.590912 71.957901,281.677734 67.970573,281.841614 
	C62.932693,282.048615 60.313683,285.011780 60.150959,289.792542 
	C59.907600,296.942139 59.970802,304.108154 60.115089,311.262909 
	C60.213104,316.123230 62.904312,319.081329 67.760307,319.475037 
	C72.059723,319.823639 76.403160,319.836670 80.719208,319.715179 
	C85.147514,319.590515 88.370415,317.816223 89.023254,312.832184 
	C89.149696,311.866882 90.433784,311.053192 91.183876,310.169586 
	C91.662834,311.250061 92.603882,312.357300 92.543091,313.406525 
	C92.231766,318.779053 88.953407,322.518219 83.525673,322.986542 
	C78.245445,323.442169 72.880356,323.442566 67.588135,323.097198 
	C60.965252,322.665039 57.636116,319.558899 56.659069,312.939514 
	C56.056152,308.854797 56.259914,304.651001 56.101482,300.007446 
z"/>
<path fill="#CCCCCC" opacity="1.000000" stroke="none" 
	d="
M134.970673,321.147888 
	C134.119843,322.109009 133.281464,322.650635 132.443085,323.192261 
	C131.990814,322.234711 131.167648,321.285126 131.146805,320.318268 
	C131.017868,314.333984 131.144363,308.344543 131.040421,302.359344 
	C130.929214,295.955566 129.030807,294.030731 122.716133,293.800262 
	C120.562820,293.721680 118.379272,293.762970 116.244270,294.028564 
	C110.542732,294.737976 108.108345,297.514740 108.038429,303.308472 
	C107.974220,308.629395 108.135284,313.955902 107.937660,319.270325 
	C107.887329,320.623627 106.852547,321.940338 106.270081,323.273834 
	C105.557892,322.034363 104.239677,320.801331 104.226456,319.554443 
	C104.080109,305.752930 104.080490,291.948639 104.230827,278.147186 
	C104.244614,276.881592 105.566963,275.630249 106.281677,274.372284 
	C106.863144,275.736176 107.885414,277.080780 107.946068,278.467468 
	C108.154411,283.231171 108.026093,288.009613 108.026093,292.005402 
	C113.246033,291.297028 118.185074,290.152588 123.142929,290.064240 
	C130.729782,289.929016 134.534927,293.708649 134.867203,301.274872 
	C135.151535,307.748596 134.962708,314.243073 134.970673,321.147888 
z"/>
<path fill="#CFCFCF" opacity="1.000000" stroke="none" 
	d="
M180.162292,323.033569 
	C174.239883,321.568573 171.978821,317.710693 171.884750,312.322174 
	C171.818039,308.500824 171.791214,304.673309 171.940979,300.856171 
	C172.004715,299.231720 172.324829,297.528076 172.940598,296.029816 
	C175.721970,289.262390 182.328873,289.471985 193.407578,290.223175 
	C199.382309,290.628296 202.597855,294.377625 202.957626,300.454651 
	C203.202789,304.595703 203.207306,308.775482 202.955811,312.915833 
	C202.564667,319.355255 199.386246,322.687958 192.998444,323.160889 
	C188.878632,323.465881 184.711411,323.130768 180.162292,323.033569 
M196.235672,294.987732 
	C190.986755,294.696106 185.732483,294.160400 180.492447,294.275024 
	C179.085068,294.305786 176.560745,296.283691 176.528717,297.423431 
	C176.345505,303.942535 175.105072,311.167450 177.453766,316.807587 
	C179.637985,322.052734 186.951187,319.533051 192.123779,319.650208 
	C193.240646,319.675507 194.501175,319.335815 195.460281,318.767334 
	C196.547089,318.123169 198.012589,317.150665 198.202591,316.116791 
	C199.481552,309.157257 201.008728,302.107971 196.235672,294.987732 
z"/>
<path fill="#D0D0D0" opacity="1.000000" stroke="none" 
	d="
M258.636322,317.122314 
	C258.291595,310.814972 257.832489,304.851440 258.046722,298.912231 
	C258.215576,294.231171 261.173767,290.993591 265.806976,290.516510 
	C270.713745,290.011261 275.749939,290.097900 280.667816,290.569855 
	C284.840149,290.970215 287.917847,293.734772 288.252869,297.994965 
	C288.704590,303.738739 288.775146,309.576141 288.281616,315.310730 
	C287.879425,319.983917 284.528198,322.690857 279.859100,323.024261 
	C275.567535,323.330780 271.078400,323.826996 266.980255,322.898315 
	C264.001068,322.223206 261.517059,319.362701 258.636322,317.122314 
M261.253967,302.101654 
	C261.267944,305.429749 260.952393,308.804291 261.412750,312.069458 
	C261.715210,314.214508 262.920807,317.827423 264.095428,317.984161 
	C269.864838,318.754059 275.977478,319.614532 281.542236,318.433258 
	C286.201904,317.444092 285.072845,311.925323 285.107422,308.033905 
	C285.229706,294.272247 284.170776,293.289795 270.380554,293.791840 
	C263.671631,294.036041 262.789551,294.759583 261.253967,302.101654 
z"/>
<path fill="#CC31BF" opacity="1.000000" stroke="none" 
	d="
M276.067810,141.798950 
	C262.475708,137.449585 248.340912,138.413010 234.327637,140.295303 
	C224.348206,141.635757 217.859924,148.660904 217.306198,159.616150 
	C216.542908,174.718124 217.044449,189.889053 217.214600,205.028076 
	C217.241821,207.448349 218.367477,209.856277 218.967300,212.670319 
	C217.453918,208.981293 214.781464,204.922226 214.675018,200.796936 
	C214.294067,186.033081 214.105545,171.198532 215.154312,156.484100 
	C216.010269,144.474899 223.421783,137.936646 235.437057,137.203049 
	C244.880905,136.626450 254.415131,136.619995 263.850800,137.244003 
	C267.927948,137.513626 271.857880,140.010071 276.067810,141.798950 
z"/>
<path fill="#CFCFCF" opacity="1.000000" stroke="none" 
	d="
M324.636780,294.990601 
	C319.359344,294.512054 314.422272,293.994568 309.502625,294.126587 
	C305.943329,294.222137 304.416901,297.033112 304.150238,300.285065 
	C303.906158,303.262024 303.996002,306.269928 304.010376,309.263885 
	C304.051331,317.799835 305.967285,319.838196 314.657745,319.777100 
	C319.224243,319.744995 324.590576,321.182068 326.979797,315.046387 
	C327.130920,314.658234 328.561249,314.337952 329.021790,314.613129 
	C329.555481,314.931946 330.124329,316.345520 329.903320,316.593384 
	C327.932709,318.804016 326.049225,322.224915 323.645630,322.680450 
	C318.685669,323.620453 313.385773,323.323853 308.293976,322.830872 
	C304.364105,322.450317 301.314728,319.692139 301.012085,315.697998 
	C300.552216,309.628815 300.881226,303.495483 300.998047,297.391724 
	C301.015717,296.467224 301.579254,295.483673 302.089386,294.649139 
	C305.791260,288.593048 324.189880,287.731873 328.489594,293.406799 
	C328.982971,294.057953 329.588501,294.857178 329.593292,295.591370 
	C329.600708,296.720703 329.132690,297.853119 328.866394,298.984222 
	C327.978790,298.442108 326.988678,298.011719 326.236877,297.321625 
	C325.662964,296.794861 325.390900,295.939178 324.636780,294.990601 
z"/>
<path fill="#CACACA" opacity="1.000000" stroke="none" 
	d="
M238.039734,290.554810 
	C243.847809,292.089691 245.733170,296.170288 245.913940,301.167633 
	C246.142273,307.479736 246.100067,313.807770 245.929321,320.122284 
	C245.900223,321.198334 244.641983,322.241150 243.951584,323.299316 
	C243.347626,322.126923 242.258896,320.969788 242.221451,319.779572 
	C242.033310,313.797852 242.220200,307.805176 242.081223,301.820862 
	C241.946503,296.019836 240.008453,294.141724 234.205261,293.890533 
	C232.216049,293.804474 230.209274,293.832611 228.224518,293.987671 
	C221.454086,294.516571 219.086273,297.060944 219.050781,303.773041 
	C219.022644,309.095001 219.140121,314.420410 218.965805,319.736847 
	C218.926712,320.929047 217.940781,322.090179 217.390762,323.265625 
	C216.662140,322.041290 215.329315,320.830170 215.302307,319.590515 
	C215.117508,311.112518 215.126862,302.627045 215.288071,294.148041 
	C215.314331,292.767242 216.402893,291.406677 217.000458,290.036743 
	C217.936005,291.104218 218.871552,292.171722 220.033798,293.497833 
	C224.803436,289.479370 231.120850,289.378754 238.039734,290.554810 
z"/>
<path fill="#D4D4D4" opacity="1.000000" stroke="none" 
	d="
M404.666870,293.664490 
	C402.636230,290.438568 402.636230,290.438568 407.531433,289.600739 
	C407.660736,287.661530 407.704315,285.677399 407.940338,283.716461 
	C408.664307,277.701263 413.360962,273.799988 419.323456,274.381775 
	C420.229126,274.470123 421.047485,275.453430 421.906250,276.022827 
	C421.144684,276.697266 420.481750,277.765167 419.606079,277.984741 
	C411.697083,279.967865 410.648132,281.452301 411.786835,289.997345 
	C414.377197,289.997345 417.025269,289.882111 419.652069,290.067871 
	C420.436005,290.123291 421.160309,291.021454 421.911957,291.533508 
	C421.192444,292.269836 420.530090,293.559906 419.742981,293.641174 
	C417.139038,293.909943 414.490082,293.742554 411.284332,293.742554 
	C411.284332,302.405243 411.373383,310.637970 411.202667,318.865295 
	C411.171753,320.354309 410.075317,321.821228 409.470825,323.298340 
	C408.882141,321.806366 407.823120,320.326385 407.784851,318.820404 
	C407.603455,311.682281 407.823151,304.532898 407.582520,297.398224 
	C407.540466,296.152130 405.978485,294.957336 404.666870,293.664490 
z"/>
<path fill="#CCCCCC" opacity="1.000000" stroke="none" 
	d="
M437.226624,317.841705 
	C439.593903,318.684357 441.678925,319.159821 443.681000,319.869324 
	C444.490265,320.156189 445.118347,320.954346 445.828888,321.519806 
	C444.994385,322.139160 444.221497,323.176117 443.315308,323.309845 
	C437.584015,324.155853 432.422546,320.777557 431.869080,314.875092 
	C431.237610,308.140350 431.722931,301.300873 431.722931,295.261597 
	C428.931641,293.794769 427.085632,292.824646 425.239594,291.854553 
	C426.917664,290.944244 428.595734,290.033936 431.241119,288.598846 
	C431.241119,287.490356 431.062408,285.197906 431.333679,282.960022 
	C431.434784,282.125763 432.587219,281.418915 433.260254,280.653961 
	C433.847290,281.464111 434.838928,282.226685 434.940948,283.093903 
	C435.188232,285.196259 435.021301,287.347290 435.021301,289.961060 
	C436.949127,289.961060 438.604431,289.735809 440.167786,290.018768 
	C442.068237,290.362762 443.891205,291.135071 445.747681,291.722046 
	C443.804291,292.418304 441.901703,293.293335 439.903503,293.749573 
	C438.511444,294.067413 436.988220,293.810791 434.161621,293.810791 
	C435.113617,302.037262 436.012299,309.802917 437.226624,317.841705 
z"/>
<path fill="#C5C5C5" opacity="1.000000" stroke="none" 
	d="
M151.138031,309.050018 
	C151.136642,313.030975 151.291550,316.541656 151.045135,320.023987 
	C150.964157,321.168549 149.843719,322.239563 149.198593,323.344208 
	C148.567123,322.171112 147.413010,321.008789 147.388565,319.823181 
	C147.223755,311.827332 147.194138,303.824249 147.370789,295.829041 
	C147.413483,293.897156 148.394165,291.985992 148.943512,290.065308 
	C150.026947,291.571930 151.110382,293.078583 151.851761,294.109497 
	C155.609924,292.776855 159.515060,291.239807 163.531662,290.093262 
	C164.357849,289.857422 165.600357,291.080017 166.650970,291.630402 
	C165.736618,292.384125 164.920166,293.603851 163.892792,293.819702 
	C153.258667,296.054077 151.273773,298.279510 151.138031,309.050018 
z"/>
<path fill="#2FA0B0" opacity="1.000000" stroke="none" 
	d="
M231.058746,224.407669 
	C241.039291,224.443726 251.143936,225.104263 261.250580,225.136688 
	C277.591064,225.189117 283.535248,219.755188 285.562073,203.434937 
	C286.379974,203.855682 287.537079,204.560638 287.689087,205.439423 
	C289.047394,213.293320 283.468140,223.805145 275.680695,225.622894 
	C260.902191,229.072479 245.925446,229.528931 231.058746,224.407669 
z"/>
<path fill="#CACACA" opacity="1.000000" stroke="none" 
	d="
M340.989990,322.011047 
	C340.901794,312.815430 340.805634,304.024628 340.943909,295.237518 
	C340.971161,293.506439 341.902344,291.789612 342.416656,290.066193 
	C343.503143,291.596588 344.589630,293.127014 345.441284,294.326660 
	C348.836823,293.040680 352.813965,291.388367 356.907867,290.109894 
	C357.705109,289.860962 358.956329,291.065887 359.998138,291.600189 
	C359.119781,292.355743 358.340973,293.585907 357.347839,293.794159 
	C346.298767,296.111115 344.702972,298.018219 344.690277,309.441406 
	C344.686218,313.089966 344.727112,316.739258 344.667389,320.386871 
	C344.624512,323.005951 343.718109,324.321045 340.989990,322.011047 
z"/>
<path fill="#CF33C3" opacity="1.000000" stroke="none" 
	d="
M282.703735,199.716507 
	C281.614014,202.016937 279.752319,203.844955 279.333832,205.958694 
	C277.475830,215.343353 274.453766,218.619095 264.812622,219.054428 
	C255.897339,219.457001 246.927261,219.385986 238.020844,218.857483 
	C234.761459,218.664078 231.615616,216.556747 228.238708,215.001511 
	C239.736115,218.542725 251.779358,217.346466 263.627563,216.547791 
	C272.910797,215.921997 275.669525,212.113998 276.996704,202.228561 
	C277.601654,197.722488 278.595673,197.216049 282.703735,199.716507 
z"/>
<path fill="#2E2E2E" opacity="1.000000" stroke="none" 
	d="
M73.434692,357.814270 
	C75.850128,358.596497 78.192398,359.029388 80.534668,359.462250 
	C80.457054,359.843750 80.379448,360.225220 80.301842,360.606720 
	C78.717186,360.756470 77.070450,361.241455 75.565125,360.962708 
	C74.023003,360.677216 71.368919,359.600311 71.391708,358.946136 
	C71.457657,357.053436 72.113831,354.457733 73.485466,353.512665 
	C75.299660,352.262726 78.012314,352.316833 80.338791,351.810455 
	C80.597290,352.401184 80.855789,352.991882 81.114288,353.582611 
	C79.460411,354.424072 77.809334,355.271057 76.151573,356.104767 
	C75.227295,356.569580 74.291908,357.012268 73.434692,357.814270 
z"/>
<path fill="#6F6F6F" opacity="1.000000" stroke="none" 
	d="
M363.170837,360.790222 
	C362.369080,356.147644 362.004730,351.582611 361.640381,347.017578 
	C362.275238,346.987030 362.910126,346.956451 363.544983,346.925873 
	C363.544983,350.787354 363.544983,354.648834 363.544983,358.735077 
	C366.208160,359.059448 368.070068,359.286224 369.932007,359.513031 
	C369.953278,359.832764 369.974548,360.152496 369.995819,360.472229 
	C367.866638,360.604065 365.737457,360.735901 363.170837,360.790222 
z"/>
<path fill="#6F6F6F" opacity="1.000000" stroke="none" 
	d="
M379.605316,353.787659 
	C379.149689,355.596771 378.867004,357.061615 378.584351,358.526459 
	C380.873688,358.526459 383.163025,358.526459 385.452362,358.526459 
	C385.667999,358.753601 385.883636,358.980774 386.099274,359.207916 
	C384.667969,359.861237 383.172424,361.150543 381.820801,361.014130 
	C379.940216,360.824249 377.358673,360.029633 376.564026,358.642273 
	C375.676422,357.092621 376.452515,354.590057 376.504517,352.502228 
	C377.595795,352.815948 378.687012,353.129669 379.605316,353.787659 
z"/>
<path fill="#2E2E2E" opacity="1.000000" stroke="none" 
	d="
M411.867767,353.153870 
	C418.589020,352.943115 419.788940,354.694183 417.206512,361.602417 
	C416.887268,359.404633 416.677094,357.957581 416.442291,356.341156 
	C415.072021,356.255768 413.943909,356.161987 412.813934,356.122192 
	C411.841003,356.087891 410.865906,356.115051 409.358215,356.115051 
	C410.245087,354.956940 410.886505,354.119324 411.867767,353.153870 
z"/>
<path fill="#050505" opacity="1.000000" stroke="none" 
	d="
M213.051270,357.434784 
	C211.091873,357.022644 209.418304,356.790863 207.744736,356.559052 
	C207.741821,355.889587 207.738892,355.220093 207.735977,354.550598 
	C210.312164,354.550598 212.915970,354.380127 215.426193,354.787079 
	C215.709473,354.832977 215.464523,358.137146 214.324661,359.838440 
	C213.995483,359.097351 213.666290,358.356232 213.051270,357.434784 
z"/>
<path fill="#050505" opacity="1.000000" stroke="none" 
	d="
M346.498230,363.249207 
	C345.613342,362.084320 344.383270,360.673584 344.377045,359.257446 
	C344.364746,356.475800 345.033203,353.691162 345.402283,351.035126 
	C347.449158,351.757111 347.706940,353.263062 346.498230,363.249207 
z"/>
<path fill="#050505" opacity="1.000000" stroke="none" 
	d="
M142.765701,352.777618 
	C143.172195,352.088776 143.786255,351.667755 144.400299,351.246704 
	C144.569168,354.712952 144.738022,358.179199 144.906891,361.645447 
	C144.262360,361.639679 143.617813,361.633942 142.973267,361.628174 
	C142.973267,358.767273 142.973267,355.906342 142.765701,352.777618 
z"/>
<path fill="#050505" opacity="1.000000" stroke="none" 
	d="
M392.146790,354.235291 
	C392.699249,353.110687 393.182495,352.332764 394.461426,350.273987 
	C394.461426,354.241913 394.461426,356.797180 394.461426,359.352478 
	C394.199127,359.444458 393.936829,359.536438 393.674530,359.628418 
	C393.142212,357.946259 392.609894,356.264099 392.146790,354.235291 
z"/>
<path fill="#181818" opacity="1.000000" stroke="none" 
	d="
M285.805725,355.780548 
	C288.305084,355.251038 290.804443,354.721527 294.312256,353.978363 
	C293.836914,356.495331 293.503021,358.263245 293.169159,360.031189 
	C292.653931,360.102112 292.138733,360.173065 291.623535,360.244019 
	C292.515778,355.450378 289.442596,356.167358 286.444214,356.051758 
	C285.979065,355.969574 285.805725,355.780548 285.805725,355.780548 
z"/>
<path fill="#050505" opacity="1.000000" stroke="none" 
	d="
M337.950714,359.071136 
	C334.146790,356.253296 335.686859,353.665192 338.638031,350.358643 
	C338.406403,353.461914 338.232300,355.794250 338.034729,358.564819 
	C338.011230,359.003021 337.950714,359.071136 337.950714,359.071136 
z"/>
<path fill="#2E2E2E" opacity="1.000000" stroke="none" 
	d="
M411.499725,359.043823 
	C412.776398,359.102570 413.703552,359.253235 414.630737,359.403900 
	C414.379639,359.876892 414.128510,360.349915 413.877380,360.822937 
	C412.968323,360.260529 412.059296,359.698151 411.499725,359.043823 
z"/>
<path fill="#181818" opacity="1.000000" stroke="none" 
	d="
M286.069855,356.060150 
	C286.013763,357.107025 285.866852,358.063354 285.710876,359.078796 
	C283.265076,357.723480 283.265076,357.723480 285.489075,355.865479 
	C285.805725,355.780548 285.979065,355.969574 286.069855,356.060150 
z"/>
<path fill="#050505" opacity="1.000000" stroke="none" 
	d="
M402.234650,350.537933 
	C402.093445,351.327820 401.733551,351.915863 401.373688,352.503906 
	C401.000824,352.115082 400.627930,351.726227 400.255066,351.337402 
	C400.842041,351.003632 401.429016,350.669861 402.234650,350.537933 
z"/>
<path fill="#050505" opacity="1.000000" stroke="none" 
	d="
M134.530121,359.025879 
	C135.263138,358.815277 135.942169,358.895294 136.621216,358.975311 
	C136.523880,359.423706 136.426559,359.872101 136.329239,360.320496 
	C135.711548,359.985840 135.093857,359.651184 134.530121,359.025879 
z"/>
<path fill="#050505" opacity="1.000000" stroke="none" 
	d="
M401.710938,359.244995 
	C401.478210,359.802124 401.184448,360.097992 400.890656,360.393860 
	C400.685608,360.028107 400.480530,359.662384 400.275482,359.296631 
	C400.733612,359.192322 401.191742,359.088043 401.710938,359.244995 
z"/>
<path fill="#050505" opacity="1.000000" stroke="none" 
	d="
M340.746185,365.077148 
	C341.589600,365.075592 342.179749,365.125702 342.769867,365.175781 
	C342.769104,365.388824 342.768311,365.601837 342.767548,365.814850 
	C341.988281,365.814850 341.208588,365.826752 340.430298,365.799225 
	C340.336884,365.795929 340.166016,365.564270 340.183105,365.464478 
	C340.204681,365.338623 340.382477,365.239471 340.746185,365.077148 
z"/>
<path fill="#181818" opacity="1.000000" stroke="none" 
	d="
M291.615356,351.488678 
	C292.087311,351.541626 292.374542,351.773804 292.661743,352.006012 
	C292.471558,352.190979 292.281372,352.375946 292.091156,352.560913 
	C291.870972,352.263245 291.650818,351.965607 291.615356,351.488678 
z"/>
<path fill="#050505" opacity="1.000000" stroke="none" 
	d="
M336.618317,362.870789 
	C337.173340,362.911102 337.582611,363.106537 337.991882,363.301971 
	C337.814056,363.483734 337.525238,363.847992 337.476105,363.818115 
	C337.114716,363.598267 336.801178,363.299683 336.618317,362.870789 
z"/>
<path fill="#050505" opacity="1.000000" stroke="none" 
	d="
M135.180344,352.515137 
	C135.031326,352.815094 134.758438,352.984192 134.485550,353.153290 
	C134.675858,352.896942 134.866165,352.640594 135.180344,352.515137 
z"/>
<path fill="#050505" opacity="1.000000" stroke="none" 
	d="
M341.170563,359.375061 
	C341.308197,359.691986 341.257751,359.985504 341.207336,360.278992 
	C341.132416,359.969879 341.057465,359.660736 341.170563,359.375061 
z"/>
<path fill="#2E2E2E" opacity="1.000000" stroke="none" 
	d="
M418.561890,351.879089 
	C418.615082,351.940063 418.416595,352.136353 418.416595,352.136353 
	C418.416595,352.136353 418.508698,351.818115 418.561890,351.879089 
z"/>
<path fill="#2FA0B0" opacity="1.000000" stroke="none" 
	d="
M227.170380,222.179306 
	C227.573547,222.124786 228.138458,222.336533 228.845856,222.820648 
	C228.436264,222.877182 227.884186,222.661377 227.170380,222.179306 
z"/>
<path fill="#CC31BF" opacity="1.000000" stroke="none" 
	d="
M218.904633,213.340317 
	C219.308762,213.507950 219.696716,214.005798 220.129974,214.838074 
	C219.746338,214.671860 219.317383,214.171204 218.904633,213.340317 
z"/>
<path fill="#2FA0B0" opacity="1.000000" stroke="none" 
	d="
M229.047256,223.353760 
	C229.531189,223.199631 230.141647,223.342499 230.862457,223.788345 
	C230.373138,223.944473 229.773468,223.797623 229.047256,223.353760 
z"/>
<path fill="#CF33C3" opacity="1.000000" stroke="none" 
	d="
M228.183899,214.570663 
	C228.007172,214.688141 227.728317,214.530426 227.500488,214.208069 
	C227.728256,214.127441 227.905014,214.211456 228.183899,214.570663 
z"/>
<path fill="#050505" opacity="1.000000" stroke="none" 
	d="
M136.481567,350.471558 
	C136.519196,350.452332 136.443954,350.490784 136.481567,350.471558 
z"/>
<path fill="#050505" opacity="1.000000" stroke="none" 
	d="
M338.045868,358.973450 
	C338.080505,358.943878 338.403015,359.244385 338.403015,359.244385 
	C338.403015,359.244385 338.081268,359.261475 338.015991,359.166321 
	C337.950714,359.071136 338.011230,359.003021 338.045868,358.973450 
z"/>
<path fill="#050505" opacity="1.000000" stroke="none" 
	d="
M383.914154,305.900635 
	C386.360962,305.900848 388.325073,305.900848 390.216980,305.900848 
	C391.828339,315.283813 389.086792,318.971649 380.194305,319.718719 
	C378.383240,319.870911 376.547424,319.901489 374.732666,319.805481 
	C369.257263,319.515808 367.735107,317.841064 367.824188,312.393768 
	C367.906219,307.379181 369.369080,306.032715 374.982727,305.921265 
	C377.797974,305.865387 380.615143,305.904327 383.914154,305.900635 
z"/>
<path fill="#050505" opacity="1.000000" stroke="none" 
	d="
M196.595245,295.217438 
	C201.008728,302.107971 199.481552,309.157257 198.202591,316.116791 
	C198.012589,317.150665 196.547089,318.123169 195.460281,318.767334 
	C194.501175,319.335815 193.240646,319.675507 192.123779,319.650208 
	C186.951187,319.533051 179.637985,322.052734 177.453766,316.807587 
	C175.105072,311.167450 176.345505,303.942535 176.528717,297.423431 
	C176.560745,296.283691 179.085068,294.305786 180.492447,294.275024 
	C185.732483,294.160400 190.986755,294.696106 196.595245,295.217438 
z"/>
<path fill="#050505" opacity="1.000000" stroke="none" 
	d="
M261.279327,301.668945 
	C262.789551,294.759583 263.671631,294.036041 270.380554,293.791840 
	C284.170776,293.289795 285.229706,294.272247 285.107422,308.033905 
	C285.072845,311.925323 286.201904,317.444092 281.542236,318.433258 
	C275.977478,319.614532 269.864838,318.754059 264.095428,317.984161 
	C262.920807,317.827423 261.715210,314.214508 261.412750,312.069458 
	C260.952393,308.804291 261.267944,305.429749 261.279327,301.668945 
z"/>
</svg>