<?xml version="1.0" standalone="no"?>
<!DOCTYPE svg PUBLIC "-//W3C//DTD SVG 20010904//EN"
 "http://www.w3.org/TR/2001/REC-SVG-20010904/DTD/svg10.dtd">
<svg version="1.0" xmlns="http://www.w3.org/2000/svg"
 width="500.000000pt" height="500.000000pt" viewBox="0 0 500.000000 500.000000"
 preserveAspectRatio="xMidYMid meet">

<g transform="translate(0.000000,500.000000) scale(0.100000,-0.100000)"
fill="#000000" stroke="none">
<path d="M820 3184 c-161 -43 -267 -185 -278 -371 -4 -71 -2 -86 19 -122 28
-50 85 -91 136 -98 36 -5 40 -9 67 -70 49 -107 121 -144 208 -105 52 23 78 67
78 134 0 66 -11 75 -53 49 -34 -21 -91 -28 -114 -13 -8 5 11 18 52 36 115 50
197 161 225 304 18 91 7 145 -42 198 -65 70 -173 91 -298 58z m120 -89 c19
-22 6 -115 -31 -232 -49 -156 -85 -205 -139 -188 -16 5 -20 15 -20 48 0 46 36
188 69 278 35 92 88 134 121 94z"/>
<path d="M3075 3148 c-11 -6 -40 -30 -65 -54 -37 -35 -53 -43 -90 -46 -56 -4
-64 -27 -24 -69 l28 -29 -21 -68 c-54 -177 -57 -189 -43 -221 27 -66 124 -90
221 -56 50 18 99 61 99 87 0 15 -8 18 -45 18 -56 0 -56 4 -12 150 26 83 37
105 52 108 53 8 67 14 77 37 14 30 -3 55 -37 55 -20 0 -23 5 -23 42 -1 22 -7
45 -14 49 -18 12 -79 10 -103 -3z"/>
<path d="M1296 3059 c-70 -11 -106 -28 -106 -50 0 -10 8 -22 17 -28 16 -8 14
-19 -20 -133 -32 -106 -36 -128 -27 -160 27 -95 163 -123 256 -53 29 22 31 23
42 4 47 -75 204 -60 251 23 18 32 8 66 -14 48 -9 -7 -18 -10 -21 -7 -3 3 13
66 35 140 23 75 41 142 41 151 0 8 -10 27 -23 41 -20 24 -29 27 -89 26 -74 0
-148 -25 -148 -49 0 -8 6 -23 14 -31 13 -14 10 -30 -22 -125 -37 -109 -60
-142 -83 -119 -8 8 -2 43 25 133 33 114 35 124 21 151 -14 26 -27 33 -85 44
-8 1 -37 -1 -64 -6z"/>
<path d="M1995 3060 c-68 -10 -110 -33 -124 -69 -16 -37 -3 -64 40 -87 61 -31
139 10 139 73 0 31 2 33 20 23 23 -12 26 -44 9 -101 l-12 -38 -87 6 c-97 6
-143 -4 -190 -43 -84 -71 -45 -205 67 -229 40 -8 105 10 139 38 l26 23 27 -26
c52 -52 153 -47 210 11 29 28 40 67 24 82 -3 4 -12 2 -20 -5 -25 -20 -24 -1 1
88 32 108 32 132 3 175 -42 64 -154 96 -272 79z m34 -299 c-13 -37 -34 -55
-54 -47 -36 13 -7 76 35 76 28 0 29 -1 19 -29z"/>
<path d="M2490 3058 c-53 -8 -100 -30 -100 -47 0 -5 7 -14 15 -21 22 -18 19
-33 -26 -181 -34 -110 -46 -139 -72 -160 -50 -43 -32 -49 138 -49 122 0 154 3
158 14 3 8 -3 22 -14 32 -10 9 -19 29 -18 43 1 39 72 244 86 249 6 2 19 -10
28 -27 32 -63 114 -76 154 -25 29 37 35 78 16 113 -34 67 -118 84 -180 36 -33
-25 -34 -25 -45 -6 -9 18 -28 27 -70 36 -8 1 -40 -2 -70 -7z"/>
<path d="M3366 3059 c-36 -10 -61 -33 -76 -70 -16 -38 -2 -72 39 -93 29 -16
30 -15 61 24 36 45 49 49 75 20 10 -11 14 -20 9 -20 -19 0 -253 -159 -263
-179 -14 -25 -14 -67 -1 -91 15 -29 79 -55 130 -54 40 1 48 6 91 53 l46 52 18
-28 c60 -91 176 -107 239 -32 45 53 27 142 -33 169 -24 11 -28 9 -64 -34 -40
-47 -71 -58 -95 -34 -9 9 16 28 103 80 114 69 145 100 145 147 0 29 -47 80
-83 89 -50 13 -77 3 -123 -46 l-44 -45 -37 42 c-41 46 -88 63 -137 50z"/>
<path d="M2931 2517 c-55 -15 -72 -38 -47 -66 17 -19 16 -24 -27 -163 -25 -78
-57 -182 -71 -231 -18 -57 -37 -99 -57 -122 -17 -19 -28 -39 -24 -45 4 -6 60
-10 144 -10 112 0 141 3 151 15 10 13 10 19 -5 35 -16 18 -16 24 19 133 33
106 57 147 84 147 25 0 22 -26 -14 -120 -34 -92 -36 -103 -25 -139 29 -99 204
-112 261 -19 23 38 23 38 11 57 -8 12 -12 12 -25 2 -24 -20 -21 0 14 114 40
129 39 158 -4 201 -22 22 -44 34 -62 35 -69 2 -101 -4 -135 -26 l-36 -24 23
75 c27 84 29 102 11 125 -30 40 -98 49 -186 26z"/>
<path d="M2125 2421 c-16 -10 -46 -35 -64 -55 -29 -30 -42 -36 -77 -36 -61 0
-71 -19 -34 -65 16 -21 30 -42 30 -47 0 -4 -16 -57 -35 -117 -19 -59 -35 -119
-35 -132 0 -88 132 -128 246 -75 50 23 84 57 84 83 0 9 -15 13 -45 13 -56 0
-57 6 -13 153 l32 107 33 0 c34 0 73 29 73 53 0 21 -22 37 -52 37 -25 0 -27 2
-19 23 6 16 5 32 -3 48 -15 32 -78 38 -121 10z"/>
<path d="M633 2340 c-41 -6 -83 -33 -83 -53 0 -6 7 -18 16 -28 14 -15 12 -26
-15 -122 -39 -131 -40 -175 -5 -216 51 -61 149 -61 225 -1 35 27 36 28 48 8
37 -60 179 -75 276 -28 76 36 187 152 213 223 25 65 28 120 9 156 -33 65 -119
84 -166 37 -22 -22 -26 -36 -26 -81 0 -46 4 -58 29 -84 37 -39 30 -69 -28
-128 -41 -41 -86 -57 -100 -35 -3 5 10 60 29 122 19 62 35 123 35 136 0 33
-46 82 -88 93 -20 5 -55 6 -77 2 -80 -15 -102 -42 -70 -85 12 -16 12 -23 0
-55 -8 -20 -22 -63 -31 -96 -17 -63 -38 -95 -61 -95 -19 0 -16 35 12 125 33
106 32 134 -4 169 -34 32 -79 44 -138 36z"/>
<path d="M1565 2340 c-95 -14 -145 -57 -131 -113 3 -15 20 -31 42 -42 65 -30
144 10 144 73 0 17 5 22 18 20 21 -4 23 -68 3 -116 -11 -27 -16 -30 -38 -21
-43 16 -164 10 -210 -10 -158 -72 -64 -297 105 -252 22 6 51 21 66 32 l27 21
22 -20 c35 -32 95 -46 144 -33 64 17 129 104 94 126 -5 3 -12 1 -16 -5 -3 -5
-11 -10 -17 -10 -11 0 -10 8 21 124 17 64 19 86 11 118 -14 50 -74 95 -138
103 -26 4 -58 8 -72 9 -14 2 -48 0 -75 -4z m31 -301 c-22 -53 -66 -63 -66 -15
0 30 18 46 52 46 26 0 27 -1 14 -31z"/>
<path d="M2490 2336 c-130 -34 -202 -130 -202 -267 0 -67 18 -106 69 -148 80
-66 213 -61 304 11 19 16 49 71 49 93 0 19 -8 19 -53 0 -57 -24 -100 -19 -136
14 -25 23 -31 37 -31 70 0 54 21 102 55 129 38 30 45 28 45 -13 0 -29 6 -39
33 -55 69 -43 147 -9 147 64 0 26 -8 41 -35 64 -57 51 -148 65 -245 38z"/>
<path d="M3572 2336 c-64 -21 -109 -55 -142 -108 -94 -152 -41 -313 115 -348
117 -26 244 32 261 120 l7 33 -34 -7 c-101 -22 -144 -20 -173 10 -33 32 -20
44 47 44 82 0 163 24 199 60 23 24 28 37 28 77 0 41 -5 54 -27 75 -16 14 -39
31 -52 38 -37 19 -178 23 -229 6z m95 -107 c-6 -42 -30 -79 -54 -79 -23 0 -8
62 25 103 25 28 35 20 29 -24z"/>
<path d="M4038 2336 c-83 -30 -118 -75 -118 -150 0 -28 8 -41 43 -71 23 -20
68 -50 99 -66 83 -42 90 -99 12 -99 -30 0 -34 3 -34 28 -1 50 -51 92 -112 92
-48 0 -78 -31 -78 -79 0 -35 5 -42 45 -69 77 -51 222 -65 339 -31 58 16 116
75 123 125 7 54 -25 91 -121 139 -78 38 -116 68 -116 88 0 20 22 37 47 37 17
0 23 -6 23 -23 0 -62 128 -104 178 -57 41 39 25 88 -41 122 -54 27 -230 36
-289 14z"/>
</g>
</svg>
